<svg width="450" height="380" viewBox="0 0 450 380" fill="none" xmlns="http://www.w3.org/2000/svg">
<g clip-path="url(#clip0)" filter="url(#filter0_d)">
<path d="M380.288 75.0987V52.3861H376.912V75.0987C375.943 75.5085 375.141 76.2578 374.643 77.2184C374.145 78.1789 373.982 79.2907 374.181 80.3634C374.381 81.436 374.931 82.4027 375.737 83.0977C376.543 83.7927 377.555 84.1728 378.6 84.1728C379.644 84.1728 380.656 83.7927 381.462 83.0977C382.268 82.4027 382.818 81.436 383.018 80.3634C383.217 79.2907 383.054 78.1789 382.556 77.2184C382.058 76.2578 381.256 75.5085 380.288 75.0987Z" fill="#E6E6E6"/>
<path d="M388.165 304.31H365.096V11.1835H356.093V304.31H333.024C330.29 304.31 327.583 304.873 325.058 305.968C322.532 307.062 320.237 308.667 318.304 310.689C316.37 312.711 314.837 315.112 313.791 317.754C312.745 320.397 312.206 323.229 312.206 326.089V326.089H408.983V326.089C408.983 323.229 408.445 320.397 407.398 317.754C406.352 315.112 404.819 312.711 402.885 310.689C400.952 308.667 398.657 307.062 396.132 305.968C393.606 304.873 390.899 304.31 388.165 304.31Z" fill="#E6E6E6"/>
<path d="M312.253 54.7405H408.936L403.024 -22.5674C402.808 -25.2331 401.646 -27.7178 399.767 -29.5325C397.888 -31.3472 395.428 -32.3606 392.87 -32.3734H328.319C325.761 -32.3606 323.301 -31.3472 321.422 -29.5325C319.543 -27.7178 318.381 -25.2331 318.165 -22.5674L312.253 54.7405Z" fill="#6C63FF"/>
<path d="M38.377 236.936H333.478V205.418C333.478 120.306 267.287 51.0617 185.928 51.0617C104.568 51.0617 38.377 120.306 38.377 205.418V236.936Z" fill="#3F3D56"/>
<path opacity="0.2" d="M38.377 236.936H333.478V205.418C333.478 120.306 267.287 51.0617 185.928 51.0617C104.568 51.0617 38.377 120.306 38.377 205.418V236.936Z" fill="black"/>
<path d="M76.6234 247.846H303.73C303.514 235.346 298.619 223.434 290.098 214.669C281.577 205.905 270.108 200.987 258.158 200.973H122.195C110.245 200.987 98.7766 205.905 90.2552 214.669C81.7337 223.434 76.8392 235.346 76.6234 247.846Z" fill="#6C63FF"/>
<path d="M49.5785 242.997C74.7508 242.997 95.157 221.649 95.157 195.316C95.157 168.983 74.7508 147.635 49.5785 147.635C24.4062 147.635 4 168.983 4 195.316C4 221.649 24.4062 242.997 49.5785 242.997Z" fill="#3F3D56"/>
<path d="M326.139 242.997C351.312 242.997 371.718 221.649 371.718 195.316C371.718 168.983 351.312 147.635 326.139 147.635C300.967 147.635 280.561 168.983 280.561 195.316C280.561 221.649 300.967 242.997 326.139 242.997Z" fill="#3F3D56"/>
<path d="M291.763 219.56V237.34H81.2517V219.56H34.1282V306.217C34.1282 311.526 36.1443 316.618 39.7331 320.372C43.3219 324.127 48.1894 326.236 53.2647 326.236H319.749C322.263 326.236 324.751 325.718 327.073 324.712C329.395 323.706 331.504 322.231 333.281 320.372C335.058 318.513 336.468 316.306 337.429 313.878C338.391 311.449 338.886 308.846 338.886 306.217V219.56H291.763Z" fill="#3F3D56"/>
<path opacity="0.2" d="M49.5785 205.014C54.6983 205.014 58.8487 200.672 58.8487 195.316C58.8487 189.96 54.6983 185.618 49.5785 185.618C44.4587 185.618 40.3083 189.96 40.3083 195.316C40.3083 200.672 44.4587 205.014 49.5785 205.014Z" fill="black"/>
<path opacity="0.2" d="M326.139 205.014C331.259 205.014 335.41 200.672 335.41 195.316C335.41 189.96 331.259 185.618 326.139 185.618C321.02 185.618 316.869 189.96 316.869 195.316C316.869 200.672 321.02 205.014 326.139 205.014Z" fill="black"/>
<path d="M202.718 45.615C202.718 45.615 203.629 63.7292 210.009 67.5427C216.388 71.3562 210.009 97.0975 210.009 97.0975L179.934 98.0508L178.112 67.5427C178.112 67.5427 181.757 55.1488 179.934 49.4285C178.112 43.7083 202.718 45.615 202.718 45.615Z" fill="#FFB8B8"/>
<path d="M236.437 297.307L225.502 310.654L242.817 327.815L251.931 308.748L236.437 297.307Z" fill="#FFB8B8"/>
<path d="M158.973 297.307L169.909 310.654L152.594 327.815L143.48 308.748L158.973 297.307Z" fill="#FFB8B8"/>
<path d="M230.514 170.984C230.514 170.984 296.131 193.865 292.485 215.793C288.84 237.721 260.588 314.944 260.588 314.944C260.588 314.944 245.095 314.944 233.248 297.784L241.45 278.716C241.45 278.716 237.805 268.229 244.184 266.322C250.564 264.415 254.209 231.047 254.209 231.047C254.209 231.047 207.73 227.234 197.705 209.119L179.479 163.357L230.514 170.984Z" fill="#2F2E41"/>
<path d="M164.897 170.984C164.897 170.984 99.2802 193.865 102.926 215.793C106.571 237.721 134.823 314.944 134.823 314.944C134.823 314.944 150.316 314.944 162.163 297.784L153.961 278.716C153.961 278.716 157.606 268.229 151.227 266.322C144.847 264.415 141.202 231.047 141.202 231.047C141.202 231.047 187.681 227.234 197.705 209.119L215.932 163.357L164.897 170.984Z" fill="#2F2E41"/>
<path d="M239.627 320.665C239.627 320.665 248.741 312.084 249.652 318.758C250.564 325.432 248.741 352.126 248.741 352.126C248.741 352.126 257.854 372.147 244.184 372.147C230.514 372.147 224.134 356.893 225.957 341.639C227.78 326.385 219.578 320.665 219.578 320.665C219.578 320.665 209.553 299.69 219.578 297.784C229.603 295.877 233.248 300.644 233.248 300.644C233.248 300.644 229.603 317.805 239.627 320.665Z" fill="#2F2E41"/>
<path d="M155.784 320.665C155.784 320.665 146.67 312.084 145.759 318.758C144.847 325.432 146.67 352.126 146.67 352.126C146.67 352.126 137.557 372.147 151.227 372.147C164.897 372.147 171.276 356.893 169.454 341.639C167.631 326.385 175.833 320.665 175.833 320.665C175.833 320.665 185.858 299.69 175.833 297.784C165.808 295.877 162.163 300.644 162.163 300.644C162.163 300.644 165.808 317.805 155.784 320.665Z" fill="#2F2E41"/>
<path d="M188.592 56.5789C200.168 56.5789 209.553 46.7615 209.553 34.6512C209.553 22.5408 200.168 12.7235 188.592 12.7235C177.016 12.7235 167.631 22.5408 167.631 34.6512C167.631 46.7615 177.016 56.5789 188.592 56.5789Z" fill="#FFB8B8"/>
<path d="M191.782 72.3096L179.023 61.8224L148.037 77.0765L147.126 163.834C147.126 163.834 127.988 173.368 133.456 185.762C133.456 185.762 149.86 189.575 157.151 197.202C164.441 204.829 205.452 194.342 222.768 188.622C240.083 182.902 244.64 176.228 244.64 176.228L227.324 150.487L237.349 84.7035L206.367 62.9127L191.782 72.3096Z" fill="#E6E6E6"/>
<path d="M214.075 19.7267C213.619 19.0784 213.201 18.4007 212.826 17.6978C212.176 16.0418 213.202 14.0904 212.243 12.5441C211.264 10.9656 208.778 10.6327 207.086 9.56033C204.481 7.90837 204.007 4.66681 201.566 2.84638C199.807 1.53473 197.299 1.18116 194.948 1.25599C192.598 1.33081 190.279 1.77537 187.927 1.82415C184.753 1.89825 181.604 1.22452 178.712 -0.147156L180.447 3.40263C178.519 2.9631 176.678 2.1822 175.002 1.09366C174.234 2.0892 175.638 3.60026 174.768 4.53406C174.411 4.83529 173.989 5.04003 173.539 5.13021C170.193 6.12485 167.042 7.7328 164.234 9.87926C163.583 10.3119 163.046 10.9059 162.668 11.6085C162.216 12.6568 162.617 13.8145 162.582 14.9291C162.52 16.9543 161.042 18.7203 159.993 20.5447C158.945 22.3691 158.378 24.7344 159.934 26.2829C160.312 26.5974 160.675 26.932 161.021 27.2854C162.579 29.2086 159.82 32.0249 161.15 34.0657C161.727 34.9517 162.911 35.4001 163.939 35.9236C165.909 36.8871 167.567 38.4325 168.707 40.3692L167.908 34.2311C167.866 34.0794 167.859 33.9195 167.886 33.7643C167.914 33.609 167.976 33.4627 168.067 33.337C168.454 32.9241 169.265 33.0887 169.8 32.8153C170.388 32.5145 170.432 31.8244 170.409 31.2465L170.229 26.79C170.148 24.7861 170.125 24.52 171.536 22.9024C172.522 21.7723 174.072 21.0905 175.63 20.589C179.189 19.4431 183.017 19.0468 186.8 18.6594C191.194 18.2096 196.141 15.9794 199.554 18.3473C202.347 20.2857 203.275 23.4719 204.621 26.2977C205.831 28.8375 208.936 36.3158 211.52 32.2677C213.144 29.7255 215.626 22.5572 214.075 19.7267Z" fill="#2F2E41"/>
<path d="M192.19 28.2903C192.104 28.2903 192.021 28.3262 191.96 28.3901C191.899 28.4539 191.865 28.5405 191.865 28.6308V37.8115C191.865 37.9018 191.899 37.9884 191.96 38.0522C192.021 38.116 192.104 38.1519 192.19 38.152H207.298C207.384 38.1519 207.467 38.116 207.528 38.0522C207.589 37.9884 207.623 37.9018 207.623 37.8115V28.6308C207.623 28.5405 207.589 28.4539 207.528 28.3901C207.467 28.3262 207.384 28.2903 207.298 28.2903L192.19 28.2903Z" fill="#3F3D56"/>
<path d="M193.879 29.0999C193.718 29.1 193.564 29.167 193.45 29.286C193.336 29.405 193.272 29.5664 193.272 29.7347V36.7075C193.272 36.8758 193.336 37.0372 193.45 37.1562C193.564 37.2752 193.718 37.3422 193.879 37.3424H205.609C205.77 37.3422 205.924 37.2752 206.038 37.1562C206.152 37.0372 206.216 36.8758 206.216 36.7075V29.7347C206.216 29.5664 206.152 29.405 206.038 29.286C205.924 29.167 205.77 29.1 205.609 29.0999H193.879Z" fill="#FF6584"/>
<path d="M192.36 31.3143H184.491V33.2211H192.36V31.3143Z" fill="#3F3D56"/>
<path d="M170.798 28.2903C170.711 28.2904 170.629 28.3263 170.568 28.3902C170.507 28.454 170.472 28.5406 170.472 28.6308V37.8115C170.472 37.9017 170.507 37.9883 170.568 38.0521C170.629 38.116 170.711 38.1519 170.798 38.152H185.905C185.991 38.1519 186.074 38.116 186.135 38.0521C186.196 37.9883 186.231 37.9017 186.231 37.8115V28.6308C186.231 28.5405 186.196 28.454 186.135 28.3902C186.074 28.3263 185.991 28.2904 185.905 28.2903L170.798 28.2903Z" fill="#3F3D56"/>
<path d="M172.486 29.0999C172.325 29.1 172.171 29.1669 172.057 29.2859C171.943 29.405 171.879 29.5664 171.879 29.7347V36.7075C171.879 36.8759 171.943 37.0373 172.057 37.1563C172.171 37.2753 172.325 37.3422 172.486 37.3424H184.217C184.378 37.3422 184.532 37.2753 184.646 37.1563C184.759 37.0373 184.824 36.8759 184.824 36.7075V29.7347C184.824 29.5664 184.759 29.405 184.646 29.2859C184.532 29.1669 184.378 29.1 184.217 29.0999H172.486Z" fill="#6C63FF"/>
<path d="M162.539 142.884H214.867C216.956 142.884 218.959 143.753 220.437 145.298C221.914 146.843 222.744 148.939 222.744 151.125H154.662C154.662 148.939 155.492 146.843 156.969 145.298C158.447 143.753 160.45 142.884 162.539 142.884Z" fill="#3F3D56"/>
<path d="M218.524 142.296C218.217 142.297 217.913 142.351 217.624 142.456C217.525 142.038 217.283 141.673 216.943 141.429C216.604 141.185 216.191 141.079 215.783 141.132C215.374 141.185 214.998 141.392 214.726 141.715C214.453 142.038 214.303 142.454 214.304 142.885C214.304 142.893 214.306 142.901 214.306 142.91C214.095 142.931 213.887 142.976 213.685 143.045C213.628 142.807 213.525 142.584 213.381 142.391C213.237 142.197 213.057 142.037 212.851 141.92C213.392 141.607 213.82 141.117 214.069 140.526C214.385 140.559 214.704 140.521 215.006 140.417C215.308 140.312 215.585 140.141 215.819 139.917C216.054 139.692 216.241 139.419 216.367 139.114C216.494 138.809 216.558 138.479 216.554 138.147C216.551 137.814 216.481 137.486 216.348 137.184C216.216 136.882 216.024 136.612 215.785 136.392C215.546 136.173 215.266 136.009 214.962 135.91C214.658 135.812 214.338 135.782 214.023 135.821C213.716 135.823 213.412 135.877 213.123 135.981C213.071 135.75 212.975 135.532 212.84 135.34C212.705 135.149 212.535 134.988 212.339 134.867C212.143 134.747 211.926 134.669 211.7 134.638C211.475 134.608 211.246 134.626 211.027 134.69C210.809 134.755 210.605 134.865 210.428 135.015C210.251 135.164 210.105 135.349 209.998 135.559C209.892 135.77 209.827 136 209.808 136.237C209.789 136.474 209.816 136.712 209.888 136.938C209.821 136.987 209.758 137.042 209.695 137.097C209.377 136.81 208.964 136.666 208.545 136.696C208.328 136.046 207.9 135.496 207.335 135.143C206.77 134.79 206.105 134.657 205.455 134.765C204.805 134.874 204.213 135.219 203.782 135.739C203.35 136.259 203.108 136.921 203.096 137.609C202.871 137.627 202.648 137.674 202.432 137.747C202.408 137.648 202.376 137.55 202.335 137.457C202.557 137.252 202.736 137 202.859 136.719C202.982 136.437 203.048 136.131 203.051 135.821C203.011 135.159 202.723 134.539 202.249 134.098C201.774 133.657 201.152 133.43 200.519 133.467C200.212 133.468 199.908 133.522 199.619 133.627C199.567 133.396 199.471 133.178 199.336 132.986C199.201 132.795 199.031 132.634 198.835 132.513C198.639 132.392 198.422 132.314 198.197 132.284C197.971 132.254 197.742 132.271 197.524 132.336C197.305 132.401 197.101 132.511 196.924 132.66C196.747 132.81 196.601 132.995 196.495 133.205C196.388 133.415 196.324 133.646 196.305 133.882C196.286 134.119 196.313 134.358 196.384 134.584C196.03 134.841 195.737 135.18 195.529 135.575C195.32 135.97 195.201 136.41 195.182 136.861C195.158 136.883 195.131 136.901 195.108 136.925C195.15 136.756 195.172 136.584 195.174 136.41C195.134 135.747 194.846 135.128 194.371 134.687C193.897 134.246 193.275 134.019 192.642 134.055C192.335 134.057 192.031 134.111 191.742 134.216C191.69 133.984 191.594 133.766 191.459 133.575C191.324 133.383 191.154 133.222 190.958 133.102C190.762 132.981 190.545 132.903 190.319 132.873C190.094 132.842 189.865 132.86 189.646 132.924C189.428 132.989 189.224 133.099 189.047 133.249C188.87 133.398 188.724 133.584 188.618 133.794C188.511 134.004 188.446 134.234 188.427 134.471C188.408 134.708 188.436 134.947 188.507 135.172C188.134 135.442 187.828 135.803 187.617 136.224C187.406 136.644 187.296 137.112 187.296 137.587C187.296 138.062 187.406 138.53 187.617 138.95C187.828 139.371 188.134 139.732 188.507 140.002C188.393 140.344 188.393 140.716 188.507 141.058C188.225 141.264 187.981 141.522 187.787 141.819C187.683 141.423 187.45 141.079 187.128 140.844C186.806 140.61 186.416 140.501 186.026 140.537C185.635 140.572 185.269 140.749 184.99 141.038C184.711 141.326 184.538 141.708 184.5 142.116C184.275 141.978 184.031 141.875 183.777 141.81C184.233 141.495 184.592 141.049 184.81 140.526C185.127 140.559 185.446 140.521 185.748 140.417C186.049 140.312 186.327 140.141 186.561 139.917C186.796 139.692 186.982 139.419 187.109 139.114C187.236 138.809 187.299 138.479 187.296 138.147C187.293 137.814 187.223 137.486 187.09 137.184C186.958 136.882 186.766 136.612 186.527 136.392C186.288 136.173 186.007 136.009 185.704 135.91C185.4 135.812 185.08 135.782 184.764 135.821C184.458 135.823 184.154 135.877 183.865 135.981C183.813 135.75 183.716 135.532 183.582 135.34C183.447 135.149 183.276 134.988 183.081 134.867C182.885 134.747 182.668 134.669 182.442 134.638C182.217 134.608 181.988 134.626 181.769 134.69C181.55 134.755 181.346 134.865 181.17 135.015C180.993 135.164 180.847 135.349 180.74 135.559C180.634 135.77 180.569 136 180.55 136.237C180.531 136.474 180.558 136.712 180.63 136.938C180.594 136.964 180.561 136.995 180.526 137.023C180.439 137.015 180.353 136.998 180.263 136.998C179.957 137 179.653 137.054 179.363 137.159C179.353 137.114 179.335 137.073 179.321 137.03C179.376 136.768 179.372 136.496 179.309 136.236C179.246 135.976 179.126 135.735 178.959 135.532C178.792 135.328 178.583 135.168 178.346 135.064C178.11 134.959 177.854 134.914 177.598 134.93C177.452 134.503 177.213 134.118 176.9 133.804C176.588 133.489 176.21 133.255 175.796 133.119C175.383 132.983 174.945 132.949 174.517 133.019C174.088 133.09 173.681 133.263 173.328 133.525C172.974 133.788 172.683 134.132 172.478 134.531C172.273 134.931 172.158 135.374 172.144 135.828C172.13 136.281 172.216 136.731 172.396 137.144C172.576 137.557 172.845 137.92 173.181 138.206C172.988 138.229 172.797 138.273 172.611 138.336C172.545 138.049 172.41 137.784 172.219 137.566C172.029 137.349 171.789 137.185 171.521 137.09C171.254 136.996 170.968 136.974 170.69 137.026C170.412 137.078 170.151 137.203 169.932 137.389C169.681 137.078 169.368 136.828 169.014 136.659C168.66 136.489 168.274 136.404 167.885 136.41C167.578 136.411 167.274 136.465 166.985 136.57C166.933 136.339 166.837 136.121 166.702 135.929C166.567 135.738 166.397 135.577 166.201 135.456C166.005 135.335 165.788 135.257 165.562 135.227C165.337 135.197 165.108 135.214 164.889 135.279C164.671 135.344 164.467 135.454 164.29 135.603C164.113 135.753 163.967 135.938 163.861 136.148C163.754 136.358 163.689 136.589 163.67 136.826C163.651 137.062 163.679 137.301 163.75 137.527C163.377 137.797 163.071 138.158 162.861 138.578C162.65 138.999 162.539 139.467 162.539 139.941C162.539 139.951 162.542 139.959 162.542 139.968C162.143 139.905 161.735 139.951 161.358 140.102C161.306 139.87 161.21 139.652 161.075 139.461C160.941 139.269 160.77 139.108 160.574 138.988C160.378 138.867 160.161 138.789 159.936 138.759C159.71 138.728 159.482 138.746 159.263 138.811C159.044 138.875 158.84 138.986 158.663 139.135C158.487 139.284 158.34 139.47 158.234 139.68C158.128 139.89 158.063 140.12 158.044 140.357C158.025 140.594 158.052 140.833 158.124 141.058C157.581 141.443 157.184 142.014 157.002 142.672C156.821 143.331 156.865 144.035 157.129 144.663C157.392 145.291 157.857 145.802 158.443 146.108C159.03 146.414 159.7 146.495 160.338 146.338C160.439 146.952 160.725 147.516 161.154 147.949C161.583 148.382 162.132 148.66 162.723 148.744C163.313 148.828 163.914 148.713 164.437 148.416C164.961 148.118 165.38 147.654 165.635 147.091C167.661 147.366 169.718 147.269 171.713 146.804C171.899 147.362 172.241 147.848 172.696 148.198C173.15 148.549 173.695 148.748 174.259 148.769C174.823 148.79 175.38 148.632 175.857 148.317C176.334 148.001 176.709 147.543 176.933 147C177.343 146.992 177.747 146.888 178.113 146.695C178.37 147.17 178.748 147.56 179.206 147.822C179.663 148.084 180.181 148.207 180.702 148.178C181.222 148.148 181.725 147.967 182.152 147.655C182.58 147.343 182.916 146.913 183.122 146.412C183.748 146.288 184.396 146.397 184.953 146.72C185.51 147.044 185.941 147.561 186.171 148.182C186.547 147.643 187.031 147.197 187.59 146.873C188.148 146.55 188.766 146.358 189.403 146.311C189.968 146.476 190.569 146.447 191.118 146.228C191.666 146.008 192.133 145.611 192.449 145.094C192.272 145.811 192.36 146.571 192.696 147.223C193.031 147.875 193.589 148.37 194.258 148.611C194.927 148.851 195.658 148.819 196.306 148.521C196.954 148.222 197.47 147.679 197.751 147C198.162 146.992 198.565 146.888 198.932 146.695C199.188 147.17 199.567 147.56 200.024 147.822C200.481 148.084 200.999 148.207 201.52 148.178C202.041 148.148 202.543 147.967 202.971 147.655C203.398 147.343 203.734 146.913 203.941 146.412C204.351 146.403 204.754 146.299 205.121 146.106C205.319 146.475 205.591 146.795 205.919 147.042C206.247 147.29 206.622 147.46 207.019 147.54C207.416 147.621 207.825 147.61 208.217 147.508C208.61 147.407 208.976 147.217 209.291 146.952C209.389 147.515 209.642 148.036 210.02 148.45C210.397 148.865 210.882 149.154 211.415 149.283C211.948 149.413 212.505 149.376 213.018 149.178C213.532 148.979 213.978 148.628 214.303 148.168C214.64 148.438 215.033 148.625 215.45 148.713C215.867 148.801 216.297 148.788 216.709 148.676C217.121 148.563 217.502 148.354 217.825 148.063C218.147 147.773 218.402 147.409 218.57 147C218.886 147.033 219.205 146.996 219.507 146.891C219.809 146.786 220.086 146.616 220.321 146.392C220.555 146.167 220.742 145.893 220.868 145.588C220.995 145.283 221.059 144.954 221.056 144.621C221.052 144.289 220.982 143.961 220.849 143.658C220.717 143.356 220.525 143.087 220.286 142.867C220.047 142.648 219.767 142.483 219.463 142.385C219.159 142.287 218.839 142.256 218.524 142.296L218.524 142.296ZM168.235 141.081C168.232 141.095 168.23 141.11 168.227 141.124C168.206 141.123 168.187 141.119 168.166 141.119C168.082 141.121 167.998 141.13 167.915 141.145C167.92 141.135 167.926 141.125 167.931 141.114C168.033 141.109 168.134 141.098 168.235 141.081ZM191.742 140.102C191.734 140.067 191.72 140.036 191.709 140.003C192.139 139.691 192.478 139.261 192.688 138.76C193.058 138.758 193.423 138.674 193.76 138.515C194.097 138.355 194.398 138.123 194.644 137.833C194.622 137.946 194.611 138.061 194.611 138.176C194.613 138.355 194.642 138.533 194.696 138.704C194.213 139.056 193.848 139.558 193.65 140.138C193.039 139.889 192.362 139.876 191.742 140.102V140.102ZM208.594 140.321C208.592 140.285 208.597 140.248 208.594 140.212C208.666 140.212 208.738 140.207 208.809 140.197C208.918 140.578 209.1 140.931 209.345 141.236C209.292 141.251 209.236 141.261 209.184 141.279C209.093 140.9 208.886 140.564 208.594 140.321Z" fill="#F9A825"/>
<path d="M160.33 145.828C159.532 145.827 158.742 145.997 158.009 146.327C157.276 146.657 156.615 147.14 156.066 147.746C155.517 148.352 155.091 149.068 154.816 149.852C154.54 150.636 154.42 151.47 154.463 152.303L158.273 207.112C158.354 208.683 159.007 210.161 160.098 211.244C161.19 212.326 162.636 212.929 164.14 212.929H213.266C214.77 212.929 216.216 212.326 217.308 211.244C218.399 210.161 219.052 208.683 219.133 207.112L222.943 152.303C222.985 151.47 222.866 150.636 222.59 149.852C222.315 149.068 221.889 148.352 221.34 147.746C220.791 147.14 220.13 146.657 219.397 146.327C218.664 145.997 217.874 145.827 217.076 145.828H160.33Z" fill="#3F3D56"/>
<path d="M166.478 145.828H163.102V212.929H166.478V145.828Z" fill="#6C63FF"/>
<path d="M176.043 145.828H172.667V212.929H176.043V145.828Z" fill="#6C63FF"/>
<path d="M185.608 145.828H182.232V212.929H185.608V145.828Z" fill="#6C63FF"/>
<path d="M195.174 145.828H191.798V212.929H195.174V145.828Z" fill="#6C63FF"/>
<path d="M204.739 145.828H201.363V212.929H204.739V145.828Z" fill="#6C63FF"/>
<path d="M214.304 145.828H210.928V212.929H214.304V145.828Z" fill="#6C63FF"/>
<path d="M210.92 179.088L199.984 185.762C199.984 185.762 173.555 208.643 191.782 212.456C210.009 216.27 214.565 196.249 214.565 196.249L220.945 188.622L210.92 179.088Z" fill="#FFB8B8"/>
<path d="M158.973 174.321L169.909 180.995C169.909 180.995 196.339 203.876 178.112 207.689C159.885 211.503 155.328 191.482 155.328 191.482L148.949 183.855L158.973 174.321Z" fill="#FFB8B8"/>
<path d="M225.501 83.7502L237.349 84.7035C237.349 84.7035 246.462 93.2839 245.551 104.724C245.551 104.724 253.753 129.512 251.93 139.999C251.93 139.999 253.753 157.16 251.019 163.834C248.285 170.508 225.501 196.249 225.501 196.249C225.501 196.249 204.541 179.088 205.452 178.135L232.792 149.533L219.122 130.466L225.501 83.7502Z" fill="#E6E6E6"/>
<path d="M148.037 77.0765L147.582 77.5532C147.582 77.5532 127.076 86.6103 127.988 98.0508C127.988 98.0508 119.785 122.839 121.608 133.326C121.608 133.326 119.786 150.487 122.52 157.16C125.254 163.834 148.037 189.575 148.037 189.575C148.037 189.575 168.998 172.414 168.087 171.461L140.746 142.86L154.417 123.792L148.037 77.0765Z" fill="#E6E6E6"/>
</g>
<defs>
<filter id="filter0_d" x="0" y="0" width="457" height="380" filterUnits="userSpaceOnUse" color-interpolation-filters="sRGB">
<feFlood flood-opacity="0" result="BackgroundImageFix"/>
<feColorMatrix in="SourceAlpha" type="matrix" values="0 0 0 0 0 0 0 0 0 0 0 0 0 0 0 0 0 0 127 0"/>
<feOffset dy="4"/>
<feGaussianBlur stdDeviation="2"/>
<feColorMatrix type="matrix" values="0 0 0 0 0 0 0 0 0 0 0 0 0 0 0 0 0 0 0.25 0"/>
<feBlend mode="normal" in2="BackgroundImageFix" result="effect1_dropShadow"/>
<feBlend mode="normal" in="SourceGraphic" in2="effect1_dropShadow" result="shape"/>
</filter>
<clipPath id="clip0">
<rect width="449" height="372" fill="white" transform="translate(4)"/>
</clipPath>
</defs>
</svg>
